/* XPM */
static char * SimC_Logo_32x32_xpm[] = {
"32 32 279 2",
"  	c None",
". 	c #CD0C0C",
"+ 	c #C91A1A",
"@ 	c #9D1212",
"# 	c #C81A1A",
"$ 	c #CA2424",
"% 	c #CD0E0E",
"& 	c #D94A4A",
"* 	c #D07B7B",
"= 	c #CC1111",
"- 	c #991414",
"; 	c #8B1111",
"> 	c #D6A1A1",
", 	c #C94848",
"' 	c #CF0202",
") 	c #D08080",
"! 	c #CA6666",
"~ 	c #AF0909",
"{ 	c #881212",
"] 	c #921212",
"^ 	c #901212",
"/ 	c #891111",
"( 	c #CD2B2B",
"_ 	c #DC6363",
": 	c #CC1919",
"< 	c #CD1A1A",
"[ 	c #CD1717",
"} 	c #CF1212",
"| 	c #9C1414",
"1 	c #891010",
"2 	c #8D1212",
"3 	c #8C1212",
"4 	c #971212",
"5 	c #8B1010",
"6 	c #CB1919",
"7 	c #D30D0D",
"8 	c #CE1919",
"9 	c #CD1818",
"0 	c #CF1818",
"a 	c #C31919",
"b 	c #8E1111",
"c 	c #8E0E0E",
"d 	c #8C0B0B",
"e 	c #8C1111",
"f 	c #931212",
"g 	c #D71111",
"h 	c #CD1D1D",
"i 	c #CD1414",
"j 	c #D01F1F",
"k 	c #B11414",
"l 	c #881111",
"m 	c #832222",
"n 	c #863333",
"o 	c #8D0E0E",
"p 	c #CD0D0D",
"q 	c #CC5454",
"r 	c #DD9D9D",
"s 	c #CF2B2B",
"t 	c #C92E2E",
"u 	c #D25151",
"v 	c #CB1212",
"w 	c #CF2626",
"x 	c #C0A8A8",
"y 	c #C53434",
"z 	c #9F0D0D",
"A 	c #881414",
"B 	c #8E0707",
"C 	c #7F4A4A",
"D 	c #9E9D9D",
"E 	c #901010",
"F 	c #921111",
"G 	c #CF1010",
"H 	c #CC5C5C",
"I 	c #D76969",
"J 	c #DE1C1C",
"K 	c #D91414",
"L 	c #CE3030",
"M 	c #CD6C6C",
"N 	c #E16262",
"O 	c #D25353",
"P 	c #D18B8B",
"Q 	c #C98787",
"R 	c #D00404",
"S 	c #D53B3B",
"T 	c #D57878",
"U 	c #C81515",
"V 	c #901313",
"W 	c #8B1212",
"X 	c #8B0E0E",
"Y 	c #8E2020",
"Z 	c #983D3D",
"` 	c #961313",
" .	c #8A1010",
"..	c #AB1111",
"+.	c #E51212",
"@.	c #D45959",
"#.	c #D0A2A2",
"$.	c #D24040",
"%.	c #CE1A1A",
"&.	c #CE1818",
"*.	c #CE0303",
"=.	c #CA6363",
"-.	c #DBAFAF",
";.	c #D33030",
">.	c #D72F2F",
",.	c #CA1B1B",
"'.	c #BC1515",
").	c #AE1212",
"!.	c #A10606",
"~.	c #840909",
"{.	c #810E0E",
"].	c #8A0808",
"^.	c #901111",
"/.	c #8C2323",
"(.	c #921C1C",
"_.	c #C50A0A",
":.	c #D10606",
"<.	c #CB9797",
"[.	c #D7AFAF",
"}.	c #CF0D0D",
"|.	c #CC0E0E",
"1.	c #CE1111",
"2.	c #CB0909",
"3.	c #CC9292",
"4.	c #E5AAAA",
"5.	c #D01E1E",
"6.	c #6F0707",
"7.	c #620A0A",
"8.	c #520A0A",
"9.	c #490606",
"0.	c #451919",
"a.	c #473131",
"b.	c #521010",
"c.	c #740C0C",
"d.	c #8D1111",
"e.	c #8E1212",
"f.	c #8B1313",
"g.	c #A56969",
"h.	c #958181",
"i.	c #990909",
"j.	c #BA1A1A",
"k.	c #D11F1F",
"l.	c #CC3838",
"m.	c #D09191",
"n.	c #D46B6B",
"o.	c #D11A1A",
"p.	c #D12727",
"q.	c #D14242",
"r.	c #D71A1A",
"s.	c #A41212",
"t.	c #3F0707",
"u.	c #480808",
"v.	c #490808",
"w.	c #480909",
"x.	c #4E1E1E",
"y.	c #471111",
"z.	c #460606",
"A.	c #5F0B0B",
"B.	c #830F0F",
"C.	c #951212",
"D.	c #8A1111",
"E.	c #AF2F2F",
"F.	c #AF5959",
"G.	c #970D0D",
"H.	c #971313",
"I.	c #B30C0C",
"J.	c #D11313",
"K.	c #D67777",
"L.	c #D11717",
"M.	c #C21818",
"N.	c #A71010",
"O.	c #840303",
"P.	c #671313",
"Q.	c #560C0C",
"R.	c #470808",
"S.	c #4D0909",
"T.	c #460404",
"U.	c #470909",
"V.	c #440808",
"W.	c #500909",
"X.	c #720D0D",
"Y.	c #991616",
"Z.	c #A31010",
"`.	c #960404",
" +	c #9D0C0C",
".+	c #9C1515",
"++	c #843333",
"@+	c #A21515",
"#+	c #C60808",
"$+	c #A70505",
"%+	c #650D0D",
"&+	c #540505",
"*+	c #4F2D2D",
"=+	c #645656",
"-+	c #460C0C",
";+	c #4E3333",
">+	c #4F1E1E",
",+	c #470505",
"'+	c #450808",
")+	c #450707",
"!+	c #970E0E",
"~+	c #A40A0A",
"{+	c #982828",
"]+	c #843B3B",
"^+	c #9C1010",
"/+	c #A6A9A9",
"(+	c #954747",
"_+	c #7B0606",
":+	c #540E0E",
"<+	c #510A0A",
"[+	c #540909",
"}+	c #570404",
"|+	c #5C2A2A",
"1+	c #5D2121",
"2+	c #954242",
"3+	c #894242",
"4+	c #A32C2C",
"5+	c #A9AFAF",
"6+	c #951515",
"7+	c #AF4848",
"8+	c #A13434",
"9+	c #660505",
"0+	c #550C0C",
"a+	c #590808",
"b+	c #570D0D",
"c+	c #581010",
"d+	c #5A0505",
"e+	c #560505",
"f+	c #A64646",
"g+	c #B39696",
"h+	c #980A0A",
"i+	c #AA3939",
"j+	c #9B1A1A",
"k+	c #980707",
"l+	c #900B0B",
"m+	c #600C0C",
"n+	c #560909",
"o+	c #550E0E",
"p+	c #5E5959",
"q+	c #5C2323",
"r+	c #5C0606",
"s+	c #570E0E",
"t+	c #A01E1E",
"u+	c #A11313",
"v+	c #960909",
"w+	c #9E1313",
"x+	c #871111",
"y+	c #590A0A",
"z+	c #570505",
"A+	c #571616",
"B+	c #5E3131",
"C+	c #580808",
"D+	c #5B0B0B",
"E+	c #991010",
"F+	c #A71A1A",
"G+	c #886666",
"H+	c #942222",
"I+	c #7D0A0A",
"J+	c #540808",
"K+	c #571212",
"L+	c #570808",
"M+	c #560404",
"N+	c #5E0B0B",
"O+	c #560A0A",
"P+	c #970909",
"Q+	c #C09797",
"R+	c #A04F4F",
"S+	c #6D0000",
"T+	c #554040",
"U+	c #654747",
"V+	c #5D0404",
"W+	c #570C0C",
"X+	c #A11A1A",
"Y+	c #A11919",
"Z+	c #660909",
"`+	c #5C3232",
" @	c #5B1A1A",
".@	c #7C0B0B",
"+@	c #5F0C0C",
"                                                                ",
"                                                                ",
"                                                                ",
"                                                                ",
"                                                                ",
"                                                                ",
"                                                                ",
"                                                                ",
"              . + @                                             ",
"      # $ % & * = - ;                                           ",
"      > , ' ) ! ~ { ] ^ /                                       ",
"    ( _ : < [ } | 1 2 3 4 5                                     ",
"    6 7 8 9 0 a b ; c d e f ;                                   ",
"    g h i 6 j k l c m n o e e                 p q r s           ",
"  t u v w x y z A B C D E F 3         G H I J K L M N O         ",
"  P Q R S T U V W X Y Z X `  .      ..+.@.#.$.%.&.*.=.-.;.      ",
"  >.,.'.).!.~.{.^ 3 X ].e ^.        /.(._.:.<.[.}.|.1.2.3.4.5.  ",
"  6.7.8.9.0.a.b.c.d.e.f.^.e         g.h.i.j.k.l.m.n.[ o.p.q.r.s.",
"    t.u.v.w.x.y.z.A.B.^.C.D.        E.F.G.H.I.J.M K.L.M.N.O.P.Q.",
"        R.S.T.T.U.V.W.X.4         Y.Z.`. +.+++@+#+$+B.%+&+*+=+  ",
"          -+;+>+,+R.'+)+7.        !+~+{+]+^+/+(+_+:+<+[+}+|+1+  ",
"                                  2+3+4+5+6+7+8+9+0+a+b+c+d+e+  ",
"                                  f+g+h+i+j+k+l+m+n+o+p+q+r+s+  ",
"                                    t+u+v+h+w+x+y+z+A+B+C+D+    ",
"                                      E+F+G+H+I+J+K+L+M+N+O+    ",
"                                        P+Q+R+S+T+U+V+W+O+      ",
"                                          X+Y+Z+`+ @            ",
"                                            .@+@                ",
"                                                                ",
"                                                                ",
"                                                                ",
"                                                                "};
